<?xml version="1.0" encoding="UTF-8" standalone="no"?>
<!DOCTYPE svg PUBLIC "-//W3C//DTD SVG 1.1//EN" "http://www.w3.org/Graphics/SVG/1.1/DTD/svg11.dtd">
<svg width="100%" height="100%" viewBox="0 0 1024 1024" version="1.1" xmlns="http://www.w3.org/2000/svg" xmlns:xlink="http://www.w3.org/1999/xlink" xml:space="preserve" xmlns:serif="http://www.serif.com/" style="fill-rule:evenodd;clip-rule:evenodd;">
    <g transform="matrix(1,0,0,1,0,-140)">
        <path d="M-58,1191L-58,0C-39.143,0 55.143,92 74,92C102.143,92 242.857,112 271,112C305.429,112 477.571,-97 512,-97C544.857,-97 709.143,168 742,168C765.571,168 883.429,120 907,120C940.714,120 1109.29,144 1143,144C1167.57,144 1290.43,86 1315,86C1334.29,86 1430.71,164 1450,164C1480.57,164 1633.43,101 1664,101L1552,0L1552,1191L-58,1191Z" style="fill:rgb(200,227,106);fill-rule:nonzero;stroke:rgb(200,227,106);stroke-width:1px;"/>
        <path d="M-58,1191L-56,39C-38.429,39 49.429,157 67,157C87.143,157 187.857,207 208,207C240.143,207 400.857,178 433,178C465.714,178 629.286,199 662,199C687.429,199 814.571,-46 840,-46C865.143,-46 990.857,206 1016,206C1040.29,206 1161.71,-93 1186,-93C1220.43,-93 1392.57,150 1427,150C1445.71,150 1539.29,196 1558,196L1552,39L1552,1191L-58,1191Z" style="fill:rgb(192,222,104);fill-rule:nonzero;stroke:rgb(192,222,104);stroke-width:1px;"/>
        <path d="M-58,1191L-54,78C-22.286,78 136.286,-60 168,-60C202.857,-60 377.143,-46 412,-46C444.429,-46 606.571,-64 639,-64C657.286,-64 748.714,229 767,229C796.571,229 944.429,163 974,163C1004.14,163 1154.86,222 1185,222C1211.29,222 1342.71,209 1369,209C1388.14,209 1483.86,-40 1503,-40L1552,78L1552,1191L-58,1191Z" style="fill:rgb(183,216,102);fill-rule:nonzero;stroke:rgb(183,216,102);stroke-width:1px;"/>
        <path d="M-58,1191L-52,117C-18.429,117 149.429,280 183,280C216.429,280 383.571,-1 417,-1C436.714,-1 535.286,228 555,228C580.857,228 710.143,263 736,263C767,263 922,210 953,210C972.429,210 1069.57,0 1089,0C1110.71,0 1219.29,13 1241,13C1268.29,13 1404.71,-37 1432,-37C1453.43,-37 1560.57,-31 1582,-31L1552,117L1552,1191L-58,1191Z" style="fill:rgb(176,210,99);fill-rule:nonzero;stroke:rgb(176,210,99);stroke-width:1px;"/>
        <path d="M-58,1191L-50,156C-31.429,156 61.429,260 80,260C99.714,260 198.286,7 218,7C247.429,7 394.571,298 424,298C449.143,298 574.857,9 600,9C633.143,9 798.857,48 832,48C857.286,48 983.714,57 1009,57C1039.29,57 1190.71,287 1221,287C1246.14,287 1371.86,64 1397,64C1425.57,64 1568.43,280 1597,280L1552,156L1552,1191L-58,1191Z" style="fill:rgb(168,205,97);fill-rule:nonzero;stroke:rgb(168,205,97);stroke-width:1px;"/>
        <path d="M-58,1191L-48,195C-23.714,195 97.714,57 122,57C150.143,57 290.857,346 319,346C340,346 445,315 466,315C490.857,315 615.143,70 640,70C671.429,70 828.571,27 860,27C883,27 998,86 1021,86C1047.86,86 1182.14,83 1209,83C1241.57,83 1404.43,88 1437,88C1459.71,88 1573.29,102 1596,102L1552,195L1552,1191L-58,1191Z" style="fill:rgb(160,199,94);fill-rule:nonzero;stroke:rgb(160,199,94);stroke-width:1px;"/>
        <path d="M-58,1191L-46,234C-25.714,234 75.714,66 96,66C118,66 228,337 250,337C276.571,337 409.429,325 436,325C463.857,325 603.143,319 631,319C651.286,319 752.714,326 773,326C804.571,326 962.429,140 994,140C1024.71,140 1178.29,402 1209,402C1236.71,402 1375.29,342 1403,342C1430.14,342 1565.86,93 1593,93L1552,234L1552,1191L-58,1191Z" style="fill:rgb(152,194,92);fill-rule:nonzero;stroke:rgb(152,194,92);stroke-width:1px;"/>
        <path d="M-58,1191L-44,273C-15,273 130,398 159,398C183,398 303,373 327,373L561,373C578.714,373 667.286,426 685,426C707.429,426 819.571,360 842,360C862.857,360 967.143,426 988,426C1010,426 1120,375 1142,375C1167,375 1292,391 1317,391L1455,391C1489,391 1659,412 1693,412L1552,273L1552,1191L-58,1191Z" style="fill:rgb(145,188,89);fill-rule:nonzero;stroke:rgb(145,188,89);stroke-width:1px;"/>
        <path d="M-58,1191L-42,312C-8.714,312 157.714,465 191,465C219.143,465 359.857,225 388,225C410.286,225 521.714,417 544,417C572.429,417 714.571,474 743,474C761.429,474 853.571,185 872,185C891.714,185 990.286,220 1010,220C1032.86,220 1147.14,466 1170,466C1197.86,466 1337.14,478 1365,478C1388.29,478 1504.71,208 1528,208L1552,312L1552,1191L-58,1191Z" style="fill:rgb(138,182,87);fill-rule:nonzero;stroke:rgb(138,182,87);stroke-width:1px;"/>
        <path d="M-58,1191L-40,351C-12.714,351 123.714,186 151,186C173.714,186 287.286,449 310,449C335.714,449 464.286,457 490,457C509.571,457 607.429,254 627,254C651.571,254 774.429,216 799,216C828.571,216 976.429,182 1006,182C1031.43,182 1158.57,247 1184,247C1203.86,247 1303.14,202 1323,202C1347.29,202 1468.71,234 1493,234C1511.14,234 1601.86,513 1620,513L1552,351L1552,1191L-58,1191Z" style="fill:rgb(130,177,85);fill-rule:nonzero;stroke:rgb(130,177,85);stroke-width:1px;"/>
        <path d="M-58,1191L-38,390C-19.143,390 75.143,234 94,234C123.429,234 270.571,278 300,278C320.429,278 422.571,527 443,527C472,527 617,232 646,232C679.429,232 846.571,555 880,555C914.286,555 1085.71,540 1120,540C1148.43,540 1290.57,485 1319,485C1352.29,485 1518.71,227 1552,227L1552,1191L-58,1191Z" style="fill:rgb(123,171,82);fill-rule:nonzero;stroke:rgb(123,171,82);stroke-width:1px;"/>
        <path d="M-58,1191L-36,429C-9.857,429 120.857,298 147,298C177.571,298 330.429,535 361,535C390,535 535,315 564,315C597,315 762,529 795,529C828,529 993,524 1026,524C1046.43,524 1148.57,309 1169,309C1202.57,309 1370.43,585 1404,585C1438.14,585 1608.86,330 1643,330L1552,429L1552,1191L-58,1191Z" style="fill:rgb(116,165,80);fill-rule:nonzero;stroke:rgb(116,165,80);stroke-width:1px;"/>
        <path d="M-58,1191L-34,468C-14.857,468 80.857,370 100,370C130.857,370 285.143,319 316,319C340.857,319 465.143,555 490,555C516.429,555 648.571,556 675,556C703.857,556 848.143,320 877,320C911.857,320 1086.14,556 1121,556C1142.57,556 1250.43,314 1272,314C1295,314 1410,307 1433,307C1465.86,307 1630.14,324 1663,324L1552,468L1552,1191L-58,1191Z" style="fill:rgb(110,160,77);fill-rule:nonzero;stroke:rgb(110,160,77);stroke-width:1px;"/>
        <path d="M-58,1191L-32,507C-4,507 136,665 164,665C194,665 344,646 374,646C398,646 518,668 542,668C566.714,668 690.286,369 715,369C745,369 895,656 925,656C950.286,656 1076.71,381 1102,381C1121,381 1216,653 1235,653C1264.29,653 1410.71,648 1440,648C1465,648 1590,370 1615,370L1552,507L1552,1191L-58,1191Z" style="fill:rgb(103,154,75);fill-rule:nonzero;stroke:rgb(103,154,75);stroke-width:1px;"/>
        <path d="M-58,1191L-30,546C2.571,546 165.429,390 198,390C223.429,390 350.571,461 376,461C409.143,461 574.857,460 608,460C628.571,460 731.429,687 752,687C771.857,687 871.143,400 891,400C914.857,400 1034.14,666 1058,666C1077.14,666 1172.86,641 1192,641C1209.43,641 1296.57,677 1314,677C1337.71,677 1456.29,392 1480,392C1508.71,392 1652.29,666 1681,666L1552,546L1552,1191L-58,1191Z" style="fill:rgb(96,149,73);fill-rule:nonzero;stroke:rgb(96,149,73);stroke-width:1px;"/>
        <path d="M-58,1191L-28,586C-6.286,586 102.286,477 124,477C151.429,477 288.571,429 316,429C350.143,429 520.857,731 555,731C575,731 675,497 695,497C725.143,497 875.857,475 906,475C932.286,475 1063.71,679 1090,679C1115.14,679 1240.86,718 1266,718C1287.14,718 1392.86,418 1414,418C1436.57,418 1549.43,482 1572,482L1552,586L1552,1191L-58,1191Z" style="fill:rgb(90,143,70);fill-rule:nonzero;stroke:rgb(90,143,70);stroke-width:1px;"/>
        <path d="M-58,1191L-26,625C8.857,625 183.143,715 218,715C249.571,715 407.429,767 439,767C469.571,767 622.429,770 653,770C684.857,770 844.143,743 876,743C904.857,743 1049.14,742 1078,742C1098,742 1198,733 1218,733C1243,733 1368,756 1393,756C1415.71,756 1529.29,502 1552,502L1552,1191L-58,1191Z" style="fill:rgb(83,138,68);fill-rule:nonzero;stroke:rgb(83,138,68);stroke-width:1px;"/>
        <path d="M-58,1191L-24,664C-5.286,664 88.286,801 107,801C135.143,801 275.857,553 304,553C324.857,553 429.143,573 450,573C477.857,573 617.143,787 645,787C666.571,787 774.429,565 796,565C822,565 952,814 978,814C1010.86,814 1175.14,820 1208,820C1233.14,820 1358.86,809 1384,809C1415.86,809 1575.14,792 1607,792L1552,664L1552,1191L-58,1191Z" style="fill:rgb(77,132,65);fill-rule:nonzero;stroke:rgb(77,132,65);stroke-width:1px;"/>
        <path d="M-58,1191L-22,703C2.571,703 125.429,553 150,553C176,553 306,840 332,840C360.857,840 505.143,863 534,863C554.714,863 658.286,546 679,546C711.857,546 876.143,796 909,796C927.857,796 1022.14,859 1041,859C1067.29,859 1198.71,795 1225,795C1257.29,795 1418.71,544 1451,544C1476.43,544 1603.57,833 1629,833L1552,703L1552,1191L-58,1191Z" style="fill:rgb(71,127,63);fill-rule:nonzero;stroke:rgb(71,127,63);stroke-width:1px;"/>
        <path d="M-58,1191L-20,742C11.286,742 167.714,874 199,874C222.714,874 341.286,587 365,587C387.143,587 497.857,607 520,607C541.143,607 646.857,858 668,858C695.714,858 834.286,865 862,865C884,865 994,894 1016,894C1035.14,894 1130.86,583 1150,583C1173.57,583 1291.43,833 1315,833C1333.14,833 1423.86,657 1442,657C1471.43,657 1618.57,886 1648,886L1552,742L1552,1191L-58,1191Z" style="fill:rgb(65,121,60);fill-rule:nonzero;stroke:rgb(65,121,60);stroke-width:1px;"/>
        <path d="M-58,1191L-18,781C6.857,781 131.143,919 156,919C181.857,919 311.143,914 337,914C370.571,914 538.429,891 572,891C604.143,891 764.857,691 797,691C830.286,691 996.714,885 1030,885C1053.71,885 1172.29,625 1196,625C1218.71,625 1332.29,695 1355,695C1372.86,695 1462.14,940 1480,940C1511.29,940 1667.71,677 1699,677L1552,781L1552,1191L-58,1191Z" style="fill:rgb(59,116,58);fill-rule:nonzero;stroke:rgb(59,116,58);stroke-width:1px;"/>
        <path d="M-58,1191L-16,820C10.429,820 142.571,917 169,917C191.857,917 306.143,701 329,701C347,701 437,979 455,979C472.857,979 562.143,945 580,945C608.571,945 751.429,932 780,932C804.143,932 924.857,950 949,950C981.143,950 1141.86,714 1174,714C1194.14,714 1294.86,952 1315,952L1497,952L1552,820L1552,1191L-58,1191Z" style="fill:rgb(53,110,55);fill-rule:nonzero;stroke:rgb(53,110,55);stroke-width:1px;"/>
        <path d="M-58,1191L-14,859C8,859 118,999 140,999C167.571,999 305.429,760 333,760C366.857,760 536.143,946 570,946C597.857,946 737.143,702 765,702C787.714,702 901.286,746 924,746C955.714,746 1114.29,702 1146,702C1169,702 1284,712 1307,712C1330.14,712 1445.86,695 1469,695C1500.86,695 1660.14,709 1692,709L1552,859L1552,1191L-58,1191Z" style="fill:rgb(47,105,53);fill-rule:nonzero;stroke:rgb(47,105,53);stroke-width:1px;"/>
        <path d="M-58,1191L-12,898C14.429,898 146.571,759 173,759C196.429,759 313.571,1000 337,1000C356.429,1000 453.571,1065 473,1065C505.571,1065 668.429,1002 701,1002C721,1002 821,734 841,734C873,734 1033,769 1065,769C1088.57,769 1206.43,745 1230,745C1257.14,745 1392.86,796 1420,796C1441.86,796 1551.14,791 1573,791L1552,898L1552,1191L-58,1191Z" style="fill:rgb(41,99,50);fill-rule:nonzero;stroke:rgb(41,99,50);stroke-width:1px;"/>
        <path d="M-58,1191L-10,937C13.571,937 131.429,817 155,817C175.286,817 276.714,801 297,801C331.857,801 506.143,1077 541,1077C573.429,1077 735.571,781 768,781C800.714,781 964.286,1049 997,1049C1022.43,1049 1149.57,778 1175,778C1199.14,778 1319.86,811 1344,811C1375,811 1530,1071 1561,1071L1552,937L1552,1191L-58,1191Z" style="fill:rgb(35,94,47);fill-rule:nonzero;stroke:rgb(35,94,47);stroke-width:1px;"/>
        <path d="M-58,1191L-8,976C21.286,976 167.714,820 197,820C225.571,820 368.429,837 397,837C418.143,837 523.857,1105 545,1105C575.286,1105 726.714,1072 757,1072C778.857,1072 888.143,1120 910,1120C938,1120 1078,1139 1106,1139C1124.57,1139 1217.43,878 1236,878C1267.29,878 1423.71,1075 1455,1075C1484.43,1075 1631.57,1094 1661,1094L1552,976L1552,1191L-58,1191Z" style="fill:rgb(30,89,45);fill-rule:nonzero;stroke:rgb(30,89,45);stroke-width:1px;"/>
        <path d="M-58,1191L-6,1015C19.714,1015 148.286,849 174,849C198.857,849 323.143,875 348,875C370.286,875 481.714,1137 504,1137C537.714,1137 706.286,919 740,919C760.286,919 861.714,1140 882,1140C916.571,1140 1089.43,1149 1124,1149C1150,1149 1280,901 1306,901C1338.43,901 1500.57,1148 1533,1148L1552,1015L1552,1191L-58,1191Z" style="fill:rgb(24,84,42);fill-rule:nonzero;stroke:rgb(24,84,42);stroke-width:1px;"/>
        <path d="M-58,1191L-4,1054C23,1054 158,947 185,947C206.571,947 314.429,914 336,914C359.286,914 475.714,1156 499,1156C532.571,1156 700.429,918 734,918C754.857,918 859.143,1186 880,1186C913.286,1186 1079.71,1167 1113,1167C1136.71,1167 1255.29,915 1279,915C1309.14,915 1459.86,1143 1490,1143C1510.71,1143 1614.29,907 1635,907L1552,1054L1552,1191L-58,1191Z" style="fill:rgb(17,78,39);fill-rule:nonzero;stroke:rgb(17,78,39);stroke-width:1px;"/>
        <path d="M-58,1191L-2,1093C17.286,1093 113.714,927 133,927C151.857,927 246.143,1191 265,1191C283,1191 373,1216 391,1216C418.143,1216 553.857,991 581,991C615.857,991 790.143,1204 825,1204C844,1204 939,927 958,927C990.857,927 1155.14,966 1188,966C1220,966 1380,925 1412,925C1440.57,925 1583.43,950 1612,950L1552,1093L1552,1191L-58,1191Z" style="fill:rgb(11,73,37);fill-rule:nonzero;stroke:rgb(11,73,37);stroke-width:1px;"/>
        <path d="M-58,1191L0,1133C20.143,1133 120.857,1257 141,1257C175.143,1257 345.857,1018 380,1018C403.857,1018 523.143,981 547,981C579.143,981 739.857,1280 772,1280C805.571,1280 973.429,972 1007,972C1040.71,972 1209.29,1007 1243,1007C1262.43,1007 1359.57,995 1379,995C1398.43,995 1495.57,1291 1515,1291L1552,1133L1552,1191L-58,1191Z" style="fill:rgb(4,68,34);fill-rule:nonzero;stroke:rgb(4,68,34);stroke-width:1px;"/>
    </g>
</svg>
