<?xml version="1.0" encoding="UTF-8" standalone="no"?><!DOCTYPE svg PUBLIC "-//W3C//DTD SVG 1.1//EN" "http://www.w3.org/Graphics/SVG/1.1/DTD/svg11.dtd"><svg width="100%" height="100%" viewBox="0 0 88 89" version="1.1" xmlns="http://www.w3.org/2000/svg" xmlns:xlink="http://www.w3.org/1999/xlink" xml:space="preserve" style="fill-rule:evenodd;clip-rule:evenodd;stroke-linejoin:round;stroke-miterlimit:1.41421;"><path d="M30,88.4l58,0l0,-4l-16,0l0,-60l-16,0l0,60l-4,0l0,-40l-16,0l0,40l-6,0l0,-30l-16,0l0,30l-10,0l0,-84l-4,0l0,88l30,0Zm30,-60l8,0l0,56l-8,0l0,-56Zm-20,20l8,0l0,36l-8,0l0,-36Zm-22,10l8,0l0,26l-8,0l0,-26Z" style="fill:#1c86a0;fill-rule:nonzero;"/><path d="M14,84.4l58,0l0,-60l-16,0l0,60l-4,0l0,-40l-16,0l0,40l-6,0l0,-30l-16,0l0,30Zm46,-56l8,0l0,56l-8,0l0,-56Zm-20,20l8,0l0,36l-8,0l0,-36Zm-22,10l8,0l0,26l-8,0l0,-26Z" style="fill:#74c0d3;fill-rule:nonzero;"/><path d="M62.4,7.4l1.8,9l3.9,-0.8l-3.1,-15.6l-15.7,3.1l0.8,3.9l8.9,-1.7c-15.6,29.6 -48.5,33.4 -48.8,33.4l0.4,4c1.5,-0.1 35.1,-4 51.8,-35.3Z" style="fill:#1c86a0;fill-rule:nonzero;"/></svg>