<?xml version="1.0" encoding="UTF-8" standalone="no"?><!DOCTYPE svg PUBLIC "-//W3C//DTD SVG 1.1//EN" "http://www.w3.org/Graphics/SVG/1.1/DTD/svg11.dtd"><svg width="100%" height="100%" viewBox="0 0 78 82" version="1.1" xmlns="http://www.w3.org/2000/svg" xmlns:xlink="http://www.w3.org/1999/xlink" xml:space="preserve" style="fill-rule:evenodd;clip-rule:evenodd;stroke-linejoin:round;stroke-miterlimit:1.41421;"><path d="M76,0l-74,0c-1.097,0 -2,0.903 -2,2l0,53c0,1.097 0.903,2 2,2l14.21,0l-9.06,21.73c-0.116,0.258 -0.176,0.538 -0.176,0.821c0,1.097 0.902,2 2,2c0.825,0 1.569,-0.511 1.866,-1.281l5.33,-12.77l45.66,0l5.32,12.77c0.297,0.77 1.041,1.281 1.866,1.281c1.098,0 2,-0.903 2,-2c0,-0.283 -0.06,-0.563 -0.176,-0.821l-9.05,-21.73l14.21,0c1.097,0 2,-0.903 2,-2l0,-53c0,-1.097 -0.903,-2 -2,-2Zm-15.83,63.5l-42.34,0l2.71,-6.5l36.92,0l2.71,6.5Zm13.83,-10.5l-70,0l0,-49l70,0l0,49Z" style="fill:#1c86a0;fill-rule:nonzero;"/><path d="M16,48.5c3.286,-0.008 5.986,-2.714 5.986,-6c0,-2.081 -1.083,-4.019 -2.856,-5.11c0.516,-2.266 2.546,-3.888 4.87,-3.89l5,0c4.937,0 9,-4.063 9,-9l0,-4c0,-2.743 2.257,-5 5,-5l12.17,0l-0.09,0.09c-0.375,0.375 -0.586,0.884 -0.586,1.415c0,1.098 0.903,2.001 2.001,2.001c0.531,0 1.04,-0.211 1.415,-0.586l3.47,-3.48c0.375,-0.375 0.587,-0.884 0.587,-1.415c0,-0.531 -0.212,-1.04 -0.587,-1.415l-3.47,-3.47c-0.376,-0.37 -0.882,-0.578 -1.41,-0.578c-1.102,0 -2.008,0.906 -2.008,2.008c0,0.537 0.215,1.053 0.598,1.43l-12.09,0c-4.937,0 -9,4.063 -9,9l0,4c0,2.743 -2.257,5 -5,5l-5,0c-4.205,0.004 -7.874,2.954 -8.78,7.06c-2.945,0.418 -5.156,2.966 -5.156,5.94c0,3.268 2.669,5.965 5.936,6l0,0Zm0,-8c1.097,0 2,0.903 2,2c0,1.097 -0.903,2 -2,2c-1.097,0 -2,-0.903 -2,-2c0,-1.097 0.903,-2 2,-2Z" style="fill:#1c86a0;fill-rule:nonzero;"/><path d="M15.23,22.44c0.316,0 0.628,-0.076 0.91,-0.22l2,-1l1,2c0.342,0.666 1.031,1.086 1.78,1.086c1.098,0 2.001,-0.903 2.001,-2.001c0,-0.318 -0.076,-0.632 -0.221,-0.915l-1,-2l2,-1c0.666,-0.342 1.086,-1.031 1.086,-1.78c0,-1.098 -0.903,-2.001 -2.001,-2.001c-0.318,0 -0.632,0.076 -0.915,0.221l-2,1l-1,-2c-0.342,-0.666 -1.031,-1.086 -1.78,-1.086c-1.098,0 -2.001,0.903 -2.001,2.001c0,0.318 0.076,0.632 0.221,0.915l1,2l-2,1c-0.667,0.342 -1.088,1.031 -1.088,1.78c0,1.097 0.903,2 2,2c0.003,0 0.005,0 0.008,0l0,0Z" style="fill:#74c0d3;fill-rule:nonzero;"/><path d="M45.64,41.81l-2.15,-0.65l0.65,-2.15c0.048,-0.173 0.072,-0.351 0.072,-0.531c0,-1.097 -0.903,-2 -2,-2c-0.864,0 -1.635,0.56 -1.902,1.381l-0.65,2.15l-2.15,-0.65c-0.173,-0.048 -0.351,-0.072 -0.531,-0.072c-1.097,0 -2,0.903 -2,2c0,0.864 0.56,1.635 1.381,1.902l2.15,0.65l-0.65,2.15c-0.065,0.2 -0.098,0.409 -0.098,0.619c0,1.098 0.902,2 2,2c0.897,0 1.69,-0.604 1.928,-1.469l0.65,-2.15l2.15,0.65c0.173,0.048 0.351,0.072 0.531,0.072c1.097,0 2,-0.903 2,-2c0,-0.864 -0.56,-1.635 -1.381,-1.902Z" style="fill:#74c0d3;fill-rule:nonzero;"/><path d="M60.9,28.62c-0.794,0.283 -1.328,1.04 -1.328,1.884c0,0.23 0.04,0.459 0.118,0.676l0.75,2.11l-2.11,0.75c-0.794,0.284 -1.327,1.041 -1.327,1.885c0,1.098 0.904,2.002 2.002,2.002c0.23,0 0.458,-0.039 0.675,-0.117l2.11,-0.75l0.75,2.11c0.283,0.796 1.04,1.331 1.885,1.331c1.097,0 2.001,-0.904 2.001,-2.001c0,-0.228 -0.04,-0.455 -0.116,-0.67l-0.75,-2.11l2.11,-0.75c0.794,-0.284 1.327,-1.041 1.327,-1.885c0,-1.098 -0.904,-2.002 -2.002,-2.002c-0.23,0 -0.458,0.039 -0.675,0.117l-2.11,0.75l-0.75,-2.11c-0.281,-0.799 -1.04,-1.337 -1.887,-1.337c-0.229,0 -0.457,0.04 -0.673,0.117Z" style="fill:#74c0d3;fill-rule:nonzero;"/><path d="M47,21.5c-3.292,0 -6,2.708 -6,6c0,3.292 2.708,6 6,6c3.292,0 6,-2.708 6,-6c0,-3.292 -2.708,-6 -6,-6Zm0,8c-1.097,0 -2,-0.903 -2,-2c0,-1.097 0.903,-2 2,-2c1.097,0 2,0.903 2,2c0,1.097 -0.903,2 -2,2Z" style="fill:#1c86a0;fill-rule:nonzero;"/><path d="M65.89,15.16c0.108,0.073 0.221,0.137 0.34,0.19c0.122,0.052 0.249,0.089 0.38,0.11c0.128,0.028 0.259,0.041 0.39,0.04c1.097,0 2,-0.903 2,-2c0.015,-0.13 0.015,-0.26 0,-0.39c-0.022,-0.127 -0.059,-0.251 -0.11,-0.37c-0.047,-0.125 -0.111,-0.242 -0.19,-0.35c-0.072,-0.112 -0.156,-0.216 -0.25,-0.31c-0.472,-0.468 -1.148,-0.671 -1.8,-0.54c-0.13,0.026 -0.257,0.063 -0.38,0.11c-0.119,0.054 -0.232,0.117 -0.34,0.19c-0.108,0.069 -0.209,0.149 -0.3,0.24c-0.094,0.094 -0.178,0.198 -0.25,0.31c-0.075,0.11 -0.138,0.227 -0.19,0.35c-0.047,0.12 -0.084,0.244 -0.11,0.37c-0.042,0.126 -0.069,0.257 -0.08,0.39c0.002,0.529 0.215,1.037 0.59,1.41c0.088,0.097 0.189,0.181 0.3,0.25l0,0Z" style="fill:#1c86a0;fill-rule:nonzero;"/></svg>