<svg viewBox="0 0 1024 1024" xmlns="http://www.w3.org/2000/svg" fill-rule="evenodd" clip-rule="evenodd"><g fill-rule="nonzero"><path d="M-58 1051V-140c18.857 0 113.143 92 132 92 28.143 0 168.857 20 197 20 34.429 0 206.571-209 241-209 32.857 0 197.143 265 230 265 23.571 0 141.429-48 165-48 33.714 0 202.29 24 236 24 24.57 0 147.43-58 172-58 19.29 0 115.71 78 135 78 30.57 0 183.43-63 214-63l-112-101v1191H-58z" fill="#c8e36a" stroke="#c8e36a"/><path d="M-58 1051l2-1152C-38.429-101 49.429 17 67 17c20.143 0 120.857 50 141 50 32.143 0 192.857-29 225-29 32.714 0 196.286 21 229 21 25.429 0 152.571-245 178-245 25.143 0 150.857 252 176 252 24.29 0 145.71-299 170-299 34.43 0 206.57 243 241 243 18.71 0 112.29 46 131 46l-6-157v1152H-58z" fill="#c0de68" stroke="#c0de68"/><path d="M-58 1051l4-1113c31.714 0 190.286-138 222-138 34.857 0 209.143 14 244 14 32.429 0 194.571-18 227-18 18.286 0 109.714 293 128 293 29.571 0 177.429-66 207-66 30.14 0 180.86 59 211 59 26.29 0 157.71-13 184-13 19.14 0 114.86-249 134-249l49 118v1113H-58z" fill="#b7d866" stroke="#b7d866"/><path d="M-58 1051l6-1074c33.571 0 201.429 163 235 163 33.429 0 200.571-281 234-281 19.714 0 118.286 229 138 229 25.857 0 155.143 35 181 35 31 0 186-53 217-53 19.429 0 116.57-210 136-210 21.71 0 130.29 13 152 13 27.29 0 163.71-50 191-50 21.43 0 128.57 6 150 6l-30 148v1074H-58z" fill="#b0d263" stroke="#b0d263"/><path d="M-58 1051l8-1035c18.571 0 111.429 104 130 104 19.714 0 118.286-253 138-253 29.429 0 176.571 291 206 291 25.143 0 150.857-289 176-289 33.143 0 198.857 39 232 39 25.286 0 151.714 9 177 9 30.29 0 181.71 230 212 230 25.14 0 150.86-223 176-223 28.57 0 171.43 216 200 216l-45-124v1035H-58z" fill="#a8cd61" stroke="#a8cd61"/><path d="M-58 1051l10-996C-23.714 55 97.714-83 122-83c28.143 0 168.857 289 197 289 21 0 126-31 147-31 24.857 0 149.143-245 174-245 31.429 0 188.571-43 220-43 23 0 138 59 161 59 26.86 0 161.14-3 188-3 32.57 0 195.43 5 228 5 22.71 0 136.29 14 159 14l-44 93v996H-58z" fill="#a0c75e" stroke="#a0c75e"/><path d="M-58 1051l12-957C-25.714 94 75.714-74 96-74c22 0 132 271 154 271 26.571 0 159.429-12 186-12 27.857 0 167.143-6 195-6 20.286 0 121.714 7 142 7C804.571 186 962.429 0 994 0c30.71 0 184.29 262 215 262 27.71 0 166.29-60 194-60 27.14 0 162.86-249 190-249l-41 141v957H-58z" fill="#98c25c" stroke="#98c25c"/><path d="M-58 1051l14-918c29 0 174 125 203 125 24 0 144-25 168-25h234c17.714 0 106.286 53 124 53 22.429 0 134.571-66 157-66 20.857 0 125.143 66 146 66 22 0 132-51 154-51 25 0 150 16 175 16h138c34 0 204 21 238 21l-141-139v918H-58z" fill="#91bc59" stroke="#91bc59"/><path d="M-58 1051l16-879c33.286 0 199.714 153 233 153 28.143 0 168.857-240 197-240 22.286 0 133.714 192 156 192 28.429 0 170.571 57 199 57 18.429 0 110.571-289 129-289 19.714 0 118.286 35 138 35 22.86 0 137.14 246 160 246 27.86 0 167.14 12 195 12 23.29 0 139.71-270 163-270l24 104v879H-58z" fill="#8ab657" stroke="#8ab657"/><path d="M-58 1051l18-840c27.286 0 163.714-165 191-165 22.714 0 136.286 263 159 263 25.714 0 154.286 8 180 8 19.571 0 117.429-203 137-203 24.571 0 147.429-38 172-38 29.571 0 177.429-34 207-34 25.43 0 152.57 65 178 65 19.86 0 119.14-45 139-45 24.29 0 145.71 32 170 32 18.14 0 108.86 279 127 279l-68-162v840H-58z" fill="#82b155" stroke="#82b155"/><path d="M-58 1051l20-801C-19.143 250 75.143 94 94 94c29.429 0 176.571 44 206 44 20.429 0 122.571 249 143 249 29 0 174-295 203-295 33.429 0 200.571 323 234 323 34.286 0 205.71-15 240-15 28.43 0 170.57-55 199-55 33.29 0 199.71-258 233-258v964H-58z" fill="#7bab52" stroke="#7bab52"/><path d="M-58 1051l22-762c26.143 0 156.857-131 183-131 30.571 0 183.429 237 214 237 29 0 174-220 203-220 33 0 198 214 231 214s198-5 231-5c20.43 0 122.57-215 143-215 33.57 0 201.43 276 235 276 34.14 0 204.86-255 239-255l-91 99v762H-58z" fill="#74a550" stroke="#74a550"/><path d="M-58 1051l24-723c19.143 0 114.857-98 134-98 30.857 0 185.143-51 216-51 24.857 0 149.143 236 174 236 26.429 0 158.571 1 185 1 28.857 0 173.143-236 202-236 34.857 0 209.14 236 244 236 21.57 0 129.43-242 151-242 23 0 138-7 161-7 32.86 0 197.14 17 230 17l-111 144v723H-58z" fill="#6ea04d" stroke="#6ea04d"/><path d="M-58 1051l26-684c28 0 168 158 196 158 30 0 180-19 210-19 24 0 144 22 168 22 24.714 0 148.286-299 173-299 30 0 180 287 210 287 25.286 0 151.71-275 177-275 19 0 114 272 133 272 29.29 0 175.71-5 205-5 25 0 150-278 175-278l-63 137v684H-58z" fill="#679a4b" stroke="#679a4b"/><path d="M-58 1051l28-645c32.571 0 195.429-156 228-156 25.429 0 152.571 71 178 71 33.143 0 198.857-1 232-1 20.571 0 123.429 227 144 227 19.857 0 119.143-287 139-287 23.857 0 143.14 266 167 266 19.14 0 114.86-25 134-25 17.43 0 104.57 36 122 36 23.71 0 142.29-285 166-285 28.71 0 172.29 274 201 274l-129-120v645H-58z" fill="#609549" stroke="#609549"/><path d="M-58 1051l30-605c21.714 0 130.286-109 152-109 27.429 0 164.571-48 192-48 34.143 0 204.857 302 239 302 20 0 120-234 140-234 30.143 0 180.857-22 211-22 26.286 0 157.71 204 184 204 25.14 0 150.86 39 176 39 21.14 0 126.86-300 148-300 22.57 0 135.43 64 158 64l-20 104v605H-58z" fill="#5a8f46" stroke="#5a8f46"/><path d="M-58 1051l32-566c34.857 0 209.143 90 244 90 31.571 0 189.429 52 221 52 30.571 0 183.429 3 214 3 31.857 0 191.143-27 223-27 28.857 0 173.14-1 202-1 20 0 120-9 140-9 25 0 150 23 175 23 22.71 0 136.29-254 159-254v689H-58z" fill="#538a44" stroke="#538a44"/><path d="M-58 1051l34-527c18.714 0 112.286 137 131 137 28.143 0 168.857-248 197-248 20.857 0 125.143 20 146 20 27.857 0 167.143 214 195 214 21.571 0 129.429-222 151-222 26 0 156 249 182 249 32.86 0 197.14 6 230 6 25.14 0 150.86-11 176-11 31.86 0 191.14-17 223-17l-55-128v527H-58z" fill="#4d8441" stroke="#4d8441"/><path d="M-58 1051l36-488c24.571 0 147.429-150 172-150 26 0 156 287 182 287 28.857 0 173.143 23 202 23 20.714 0 124.286-317 145-317 32.857 0 197.143 250 230 250 18.857 0 113.14 63 132 63 26.29 0 157.71-64 184-64 32.29 0 193.71-251 226-251 25.43 0 152.57 289 178 289l-77-130v488H-58z" fill="#477f3f" stroke="#477f3f"/><path d="M-58 1051l38-449c31.286 0 187.714 132 219 132 23.714 0 142.286-287 166-287 22.143 0 132.857 20 155 20 21.143 0 126.857 251 148 251 27.714 0 166.286 7 194 7 22 0 132 29 154 29 19.14 0 114.86-311 134-311 23.57 0 141.43 250 165 250 18.14 0 108.86-176 127-176 29.43 0 176.57 229 206 229l-96-144v449H-58z" fill="#41793c" stroke="#41793c"/><path d="M-58 1051l40-410c24.857 0 149.143 138 174 138 25.857 0 155.143-5 181-5 33.571 0 201.429-23 235-23 32.143 0 192.857-200 225-200 33.286 0 199.714 194 233 194 23.71 0 142.29-260 166-260 22.71 0 136.29 70 159 70 17.86 0 107.14 245 125 245 31.29 0 187.71-263 219-263l-147 104v410H-58z" fill="#3b743a" stroke="#3b743a"/><path d="M-58 1051l42-371c26.429 0 158.571 97 185 97 22.857 0 137.143-216 160-216 18 0 108 278 126 278 17.857 0 107.143-34 125-34 28.571 0 171.429-13 200-13 24.143 0 144.857 18 169 18 32.143 0 192.86-236 225-236 20.14 0 120.86 238 141 238h182l55-132v371H-58z" fill="#356e37" stroke="#356e37"/><path d="M-58 1051l44-332c22 0 132 140 154 140 27.571 0 165.429-239 193-239 33.857 0 203.143 186 237 186 27.857 0 167.143-244 195-244 22.714 0 136.286 44 159 44 31.714 0 190.29-44 222-44 23 0 138 10 161 10 23.14 0 138.86-17 162-17 31.86 0 191.14 14 223 14l-140 150v332H-58z" fill="#2f6935" stroke="#2f6935"/><path d="M-58 1051l46-293c26.429 0 158.571-139 185-139 23.429 0 140.571 241 164 241 19.429 0 116.571 65 136 65 32.571 0 195.429-63 228-63 20 0 120-268 140-268 32 0 192 35 224 35 23.57 0 141.43-24 165-24 27.14 0 162.86 51 190 51 21.86 0 131.14-5 153-5l-21 107v293H-58z" fill="#296332" stroke="#296332"/><path d="M-58 1051l48-254c23.571 0 141.429-120 165-120 20.286 0 121.714-16 142-16 34.857 0 209.143 276 244 276 32.429 0 194.571-296 227-296 32.714 0 196.286 268 229 268 25.43 0 152.57-271 178-271 24.14 0 144.86 33 169 33 31 0 186 260 217 260l-9-134v254H-58z" fill="#235e2f" stroke="#235e2f"/><path d="M-58 1051l50-215c29.286 0 175.714-156 205-156 28.571 0 171.429 17 200 17 21.143 0 126.857 268 148 268 30.286 0 181.714-33 212-33 21.857 0 131.143 48 153 48 28 0 168 19 196 19 18.57 0 111.43-261 130-261 31.29 0 187.71 197 219 197 29.43 0 176.57 19 206 19l-109-118v215H-58z" fill="#1e592d" stroke="#1e592d"/><path d="M-58 1051l52-176c25.714 0 154.286-166 180-166 24.857 0 149.143 26 174 26 22.286 0 133.714 262 156 262 33.714 0 202.286-218 236-218 20.286 0 121.714 221 142 221 34.571 0 207.43 9 242 9 26 0 156-248 182-248 32.43 0 194.57 247 227 247l19-133v176H-58z" fill="#18542a" stroke="#18542a"/><path d="M-58 1051l54-137c27 0 162-107 189-107 21.571 0 129.429-33 151-33 23.286 0 139.714 242 163 242 33.571 0 201.429-238 235-238 20.857 0 125.143 268 146 268 33.286 0 199.71-19 233-19 23.71 0 142.29-252 166-252 30.14 0 180.86 228 211 228 20.71 0 124.29-236 145-236l-83 147v137H-58z" fill="#114e27" stroke="#114e27"/><path d="M-58 1051l56-98c19.286 0 115.714-166 135-166 18.857 0 113.143 264 132 264 18 0 108 25 126 25 27.143 0 162.857-225 190-225 34.857 0 209.143 213 244 213 19 0 114-277 133-277 32.857 0 197.14 39 230 39 32 0 192-41 224-41 28.57 0 171.43 25 200 25l-60 143v98H-58z" fill="#0b4925" stroke="#0b4925"/><path d="M-58 1051l58-58c20.143 0 120.857 124 141 124 34.143 0 204.857-239 239-239 23.857 0 143.143-37 167-37 32.143 0 192.857 299 225 299 33.571 0 201.429-308 235-308 33.71 0 202.29 35 236 35 19.43 0 116.57-12 136-12 19.43 0 116.57 296 136 296l37-158v58H-58z" fill="#044422" stroke="#044422"/></g></svg>